<?xml version="1.0" encoding="utf-8"?>
<!-- Generator: Adobe Illustrator 17.1.0, SVG Export Plug-In . SVG Version: 6.00 Build 0)  -->
<!DOCTYPE svg PUBLIC "-//W3C//DTD SVG 1.1//EN" "http://www.w3.org/Graphics/SVG/1.1/DTD/svg11.dtd">
<svg version="1.1" id="Layer_1" xmlns="http://www.w3.org/2000/svg" xmlns:xlink="http://www.w3.org/1999/xlink" x="0px" y="0px"
	 viewBox="0 0 50 50" enable-background="new 0 0 50 50" xml:space="preserve">
<g>
	<path fill="none" stroke="#515151" stroke-width="2" stroke-miterlimit="10" d="M34.6,3.7C30.1,1.5,25.2,1,20.6,1.8
		c2.2,4.1,1.4,12-2.4,19.9C14.4,29.4,9,34.9,4.4,36c2.3,4,5.7,7.3,10.1,9.5C26.1,51,40,46.1,45.5,34.6S46.2,9.2,34.6,3.7z"/>
	<path fill="none" stroke="#515151" stroke-width="2" stroke-miterlimit="10" d="M4.4,36c-3.6-6.4-4.1-14.3-0.7-21.4
		C7.1,7.6,13.5,3,20.6,1.8"/>
</g>
<path fill="none" stroke="#515151" stroke-width="2" stroke-miterlimit="10" d="M27.7,47.5c-2.3-4.1-1.5-12.1,2.3-20.1
	C34,19.2,40,13.5,44.6,13"/>
</svg>
